<mxfile host="app.diagrams.net" modified="2023-05-01T14:27:04.787Z" agent="Mozilla/5.0 (Windows NT 10.0; Win64; x64) AppleWebKit/537.36 (KHTML, like Gecko) Chrome/112.0.0.0 Safari/537.36 Edg/112.0.1722.64" etag="saX6FwPFA0K9RcpXj-M1" version="21.2.3" type="github">
  <diagram name="Seite-1" id="Nwx2H7trwIIYwiWYOAmo">
    <mxGraphModel dx="1377" dy="756" grid="1" gridSize="10" guides="1" tooltips="1" connect="1" arrows="1" fold="1" page="1" pageScale="1" pageWidth="827" pageHeight="1169" math="0" shadow="0">
      <root>
        <mxCell id="0" />
        <mxCell id="1" parent="0" />
        <mxCell id="sjmx7I6ZA5P_2bOnnSbX-5" style="edgeStyle=orthogonalEdgeStyle;rounded=0;orthogonalLoop=1;jettySize=auto;html=1;exitX=1;exitY=0.5;exitDx=0;exitDy=0;" edge="1" parent="1" source="sjmx7I6ZA5P_2bOnnSbX-1" target="sjmx7I6ZA5P_2bOnnSbX-3">
          <mxGeometry relative="1" as="geometry" />
        </mxCell>
        <mxCell id="sjmx7I6ZA5P_2bOnnSbX-1" value="Empty" style="rounded=1;whiteSpace=wrap;html=1;" vertex="1" parent="1">
          <mxGeometry x="100" y="100" width="120" height="60" as="geometry" />
        </mxCell>
        <mxCell id="sjmx7I6ZA5P_2bOnnSbX-18" style="edgeStyle=orthogonalEdgeStyle;rounded=0;orthogonalLoop=1;jettySize=auto;html=1;exitX=0.5;exitY=0;exitDx=0;exitDy=0;entryX=0.583;entryY=1;entryDx=0;entryDy=0;entryPerimeter=0;" edge="1" parent="1" source="sjmx7I6ZA5P_2bOnnSbX-3" target="sjmx7I6ZA5P_2bOnnSbX-16">
          <mxGeometry relative="1" as="geometry" />
        </mxCell>
        <mxCell id="sjmx7I6ZA5P_2bOnnSbX-31" style="edgeStyle=orthogonalEdgeStyle;rounded=0;orthogonalLoop=1;jettySize=auto;html=1;exitX=0;exitY=1;exitDx=0;exitDy=0;entryX=1;entryY=0;entryDx=0;entryDy=0;" edge="1" parent="1" source="sjmx7I6ZA5P_2bOnnSbX-3" target="sjmx7I6ZA5P_2bOnnSbX-25">
          <mxGeometry relative="1" as="geometry" />
        </mxCell>
        <mxCell id="sjmx7I6ZA5P_2bOnnSbX-49" style="edgeStyle=orthogonalEdgeStyle;rounded=0;orthogonalLoop=1;jettySize=auto;html=1;exitX=0.75;exitY=1;exitDx=0;exitDy=0;entryX=0.75;entryY=0;entryDx=0;entryDy=0;" edge="1" parent="1" source="sjmx7I6ZA5P_2bOnnSbX-3" target="sjmx7I6ZA5P_2bOnnSbX-7">
          <mxGeometry relative="1" as="geometry" />
        </mxCell>
        <mxCell id="sjmx7I6ZA5P_2bOnnSbX-3" value="Running&lt;hr&gt;entry / ledBlink(ledGreen)&lt;br&gt;do / motorRightMode()" style="rounded=1;whiteSpace=wrap;html=1;" vertex="1" parent="1">
          <mxGeometry x="390" y="130" width="180" height="60" as="geometry" />
        </mxCell>
        <mxCell id="sjmx7I6ZA5P_2bOnnSbX-27" style="edgeStyle=orthogonalEdgeStyle;rounded=0;orthogonalLoop=1;jettySize=auto;html=1;exitX=0;exitY=0.5;exitDx=0;exitDy=0;entryX=1.008;entryY=0.65;entryDx=0;entryDy=0;entryPerimeter=0;" edge="1" parent="1" source="sjmx7I6ZA5P_2bOnnSbX-7" target="sjmx7I6ZA5P_2bOnnSbX-10">
          <mxGeometry relative="1" as="geometry" />
        </mxCell>
        <mxCell id="sjmx7I6ZA5P_2bOnnSbX-47" style="edgeStyle=orthogonalEdgeStyle;rounded=0;orthogonalLoop=1;jettySize=auto;html=1;exitX=1;exitY=0;exitDx=0;exitDy=0;entryX=0.989;entryY=0.867;entryDx=0;entryDy=0;entryPerimeter=0;" edge="1" parent="1" source="sjmx7I6ZA5P_2bOnnSbX-7" target="sjmx7I6ZA5P_2bOnnSbX-3">
          <mxGeometry relative="1" as="geometry" />
        </mxCell>
        <mxCell id="sjmx7I6ZA5P_2bOnnSbX-7" value="Profil-Checking&lt;hr&gt;do / getHeight()" style="rounded=1;whiteSpace=wrap;html=1;" vertex="1" parent="1">
          <mxGeometry x="440" y="420" width="120" height="60" as="geometry" />
        </mxCell>
        <mxCell id="sjmx7I6ZA5P_2bOnnSbX-26" style="edgeStyle=orthogonalEdgeStyle;rounded=0;orthogonalLoop=1;jettySize=auto;html=1;exitX=0.5;exitY=0;exitDx=0;exitDy=0;entryX=0.5;entryY=1;entryDx=0;entryDy=0;" edge="1" parent="1" source="sjmx7I6ZA5P_2bOnnSbX-10" target="sjmx7I6ZA5P_2bOnnSbX-25">
          <mxGeometry relative="1" as="geometry" />
        </mxCell>
        <mxCell id="sjmx7I6ZA5P_2bOnnSbX-10" value="Running back&lt;hr&gt;entry / ledBlink(ledRed)&lt;br&gt;do / motorLeftMode()" style="rounded=1;whiteSpace=wrap;html=1;" vertex="1" parent="1">
          <mxGeometry x="70" y="390" width="180" height="100" as="geometry" />
        </mxCell>
        <mxCell id="sjmx7I6ZA5P_2bOnnSbX-12" value="when(nicht Soll-Profil)" style="text;html=1;align=center;verticalAlign=middle;resizable=0;points=[];autosize=1;strokeColor=none;fillColor=none;" vertex="1" parent="1">
          <mxGeometry x="250" y="410" width="140" height="30" as="geometry" />
        </mxCell>
        <mxCell id="sjmx7I6ZA5P_2bOnnSbX-13" value="when(Soll-Profil)" style="text;html=1;align=center;verticalAlign=middle;resizable=0;points=[];autosize=1;strokeColor=none;fillColor=none;" vertex="1" parent="1">
          <mxGeometry x="560" y="270" width="110" height="30" as="geometry" />
        </mxCell>
        <mxCell id="sjmx7I6ZA5P_2bOnnSbX-14" value="when(L1.isTriggered())" style="text;html=1;align=center;verticalAlign=middle;resizable=0;points=[];autosize=1;strokeColor=none;fillColor=none;" vertex="1" parent="1">
          <mxGeometry x="220" y="100" width="140" height="30" as="geometry" />
        </mxCell>
        <mxCell id="sjmx7I6ZA5P_2bOnnSbX-15" value="when(L2.isTriggered())" style="text;html=1;align=center;verticalAlign=middle;resizable=0;points=[];autosize=1;strokeColor=none;fillColor=none;" vertex="1" parent="1">
          <mxGeometry x="390" y="300" width="140" height="30" as="geometry" />
        </mxCell>
        <mxCell id="sjmx7I6ZA5P_2bOnnSbX-20" style="edgeStyle=orthogonalEdgeStyle;rounded=0;orthogonalLoop=1;jettySize=auto;html=1;exitX=0;exitY=0.5;exitDx=0;exitDy=0;entryX=0.25;entryY=0;entryDx=0;entryDy=0;" edge="1" parent="1" source="sjmx7I6ZA5P_2bOnnSbX-16" target="sjmx7I6ZA5P_2bOnnSbX-1">
          <mxGeometry relative="1" as="geometry" />
        </mxCell>
        <mxCell id="sjmx7I6ZA5P_2bOnnSbX-38" style="edgeStyle=orthogonalEdgeStyle;rounded=0;orthogonalLoop=1;jettySize=auto;html=1;exitX=0;exitY=1;exitDx=0;exitDy=0;entryX=1;entryY=0.75;entryDx=0;entryDy=0;" edge="1" parent="1" source="sjmx7I6ZA5P_2bOnnSbX-16" target="sjmx7I6ZA5P_2bOnnSbX-25">
          <mxGeometry relative="1" as="geometry" />
        </mxCell>
        <mxCell id="sjmx7I6ZA5P_2bOnnSbX-16" value="Done&lt;hr&gt;entry / motorStop() / ledOff(ledGreen)" style="rounded=1;whiteSpace=wrap;html=1;" vertex="1" parent="1">
          <mxGeometry x="354" width="216" height="80" as="geometry" />
        </mxCell>
        <mxCell id="sjmx7I6ZA5P_2bOnnSbX-19" value="when(L3.isTriggered())" style="text;html=1;align=center;verticalAlign=middle;resizable=0;points=[];autosize=1;strokeColor=none;fillColor=none;" vertex="1" parent="1">
          <mxGeometry x="480" y="90" width="140" height="30" as="geometry" />
        </mxCell>
        <mxCell id="sjmx7I6ZA5P_2bOnnSbX-21" value="&lt;font style=&quot;font-size: 12px;&quot;&gt;when(!L3.isTriggered())&lt;br&gt;&lt;/font&gt;" style="text;html=1;align=center;verticalAlign=middle;resizable=0;points=[];autosize=1;strokeColor=none;fillColor=none;" vertex="1" parent="1">
          <mxGeometry x="180" y="10" width="150" height="30" as="geometry" />
        </mxCell>
        <mxCell id="sjmx7I6ZA5P_2bOnnSbX-43" style="edgeStyle=orthogonalEdgeStyle;rounded=0;orthogonalLoop=1;jettySize=auto;html=1;exitX=0.75;exitY=0;exitDx=0;exitDy=0;entryX=0.5;entryY=1;entryDx=0;entryDy=0;" edge="1" parent="1" source="sjmx7I6ZA5P_2bOnnSbX-25" target="sjmx7I6ZA5P_2bOnnSbX-1">
          <mxGeometry relative="1" as="geometry" />
        </mxCell>
        <mxCell id="sjmx7I6ZA5P_2bOnnSbX-25" value="Error&lt;hr&gt;entry / ledBlink(ledRed) / motorStop()&lt;br&gt;exit / ledOff(ledRed)" style="rounded=1;whiteSpace=wrap;html=1;" vertex="1" parent="1">
          <mxGeometry x="10" y="270" width="210" height="60" as="geometry" />
        </mxCell>
        <mxCell id="sjmx7I6ZA5P_2bOnnSbX-28" value="when(L1.isTriggered())" style="text;html=1;align=center;verticalAlign=middle;resizable=0;points=[];autosize=1;strokeColor=none;fillColor=none;" vertex="1" parent="1">
          <mxGeometry x="20" y="360" width="140" height="30" as="geometry" />
        </mxCell>
        <mxCell id="sjmx7I6ZA5P_2bOnnSbX-30" value="when(!L1.isTriggered())" style="text;html=1;align=center;verticalAlign=middle;resizable=0;points=[];autosize=1;strokeColor=none;fillColor=none;" vertex="1" parent="1">
          <mxGeometry x="5" y="208" width="150" height="30" as="geometry" />
        </mxCell>
        <mxCell id="sjmx7I6ZA5P_2bOnnSbX-32" value="when(L1.isTriggered())" style="text;html=1;align=center;verticalAlign=middle;resizable=0;points=[];autosize=1;strokeColor=none;fillColor=none;" vertex="1" parent="1">
          <mxGeometry x="215" y="200" width="140" height="30" as="geometry" />
        </mxCell>
        <mxCell id="sjmx7I6ZA5P_2bOnnSbX-35" value="" style="edgeStyle=orthogonalEdgeStyle;rounded=0;orthogonalLoop=1;jettySize=auto;html=1;exitX=0;exitY=0;exitDx=0;exitDy=0;entryX=0.892;entryY=0.983;entryDx=0;entryDy=0;entryPerimeter=0;" edge="1" parent="1" source="sjmx7I6ZA5P_2bOnnSbX-7" target="sjmx7I6ZA5P_2bOnnSbX-25">
          <mxGeometry relative="1" as="geometry">
            <mxPoint x="400" y="410" as="sourcePoint" />
            <mxPoint x="280" y="360" as="targetPoint" />
          </mxGeometry>
        </mxCell>
        <mxCell id="sjmx7I6ZA5P_2bOnnSbX-36" value="when(L1.isTriggered())" style="text;html=1;align=center;verticalAlign=middle;resizable=0;points=[];autosize=1;strokeColor=none;fillColor=none;" vertex="1" parent="1">
          <mxGeometry x="220" y="340" width="140" height="30" as="geometry" />
        </mxCell>
        <mxCell id="sjmx7I6ZA5P_2bOnnSbX-39" value="when(L1.isTriggered())" style="text;html=1;align=center;verticalAlign=middle;resizable=0;points=[];autosize=1;strokeColor=none;fillColor=none;" vertex="1" parent="1">
          <mxGeometry x="215" y="285" width="140" height="30" as="geometry" />
        </mxCell>
        <mxCell id="sjmx7I6ZA5P_2bOnnSbX-51" value="" style="ellipse;html=1;shape=startState;fillColor=#000000;strokeColor=none;" vertex="1" parent="1">
          <mxGeometry x="10" y="130" width="30" height="30" as="geometry" />
        </mxCell>
        <mxCell id="sjmx7I6ZA5P_2bOnnSbX-52" value="" style="edgeStyle=orthogonalEdgeStyle;html=1;verticalAlign=bottom;endArrow=open;endSize=8;strokeColor=#000000;rounded=0;entryX=0;entryY=0.75;entryDx=0;entryDy=0;" edge="1" source="sjmx7I6ZA5P_2bOnnSbX-51" parent="1" target="sjmx7I6ZA5P_2bOnnSbX-1">
          <mxGeometry relative="1" as="geometry">
            <mxPoint x="25" y="210" as="targetPoint" />
          </mxGeometry>
        </mxCell>
        <mxCell id="sjmx7I6ZA5P_2bOnnSbX-53" value="Inital" style="text;html=1;align=center;verticalAlign=middle;resizable=0;points=[];autosize=1;strokeColor=none;fillColor=none;" vertex="1" parent="1">
          <mxGeometry y="108" width="50" height="30" as="geometry" />
        </mxCell>
      </root>
    </mxGraphModel>
  </diagram>
</mxfile>
